<mxfile host="app.diagrams.net" modified="2023-05-16T15:55:55.169Z" agent="Mozilla/5.0 (Macintosh; Intel Mac OS X 10_15_7) AppleWebKit/537.36 (KHTML, like Gecko) Chrome/112.0.0.0 Safari/537.36" version="21.3.2" etag="Lw0Ed0-u1X2ebRgKniJ0" type="github">
  <diagram name="第 1 页" id="a_JVqLOM1s89cNKV67hS">
    <mxGraphModel>
      <root>
        <mxCell id="0" />
        <mxCell id="1" parent="0" />
      </root>
    </mxGraphModel>
  </diagram>
</mxfile>
